<svg width="740" height="354" viewBox="0 0 740 354" fill="none" xmlns="http://www.w3.org/2000/svg">
<path d="M-0.00012207 0.595215L146.684 88.5334V341.814L-0.00012207 253.915V0.595215Z" fill="white"/>
<path d="M146.684 88.5491H386.614V341.829H146.684V88.5491Z" fill="#5EFF77"/>
<path d="M447.906 112.756H452.834C453.026 112.756 453.122 112.852 453.122 113.076V114.58C453.122 114.772 453.026 114.9 452.834 114.9H426.914C426.722 114.9 426.594 114.772 426.594 114.58V113.076C426.594 112.852 426.722 112.756 426.914 112.756H445.41C446.082 110.58 446.53 107.54 446.594 104.948H430.754C430.562 104.948 430.466 104.82 430.466 104.628V103.092C430.466 102.9 430.562 102.772 430.754 102.772H448.802C448.994 102.772 449.122 102.9 449.122 103.092C449.09 106.708 448.674 110.292 447.906 112.756ZM433.154 127.636H449.698C449.89 127.636 450.018 127.764 450.018 127.988V129.396C450.018 129.62 449.89 129.716 449.698 129.716H430.978C430.754 129.716 430.658 129.62 430.658 129.396V122.964C430.658 122.74 430.754 122.644 430.978 122.644H446.594V119.764H430.914C430.69 119.764 430.594 119.668 430.594 119.444V118.068C430.594 117.876 430.69 117.748 430.914 117.748H448.738C448.962 117.748 449.058 117.876 449.058 118.068V124.308C449.058 124.532 448.962 124.66 448.738 124.66H433.154V127.636ZM469.372 124.18H481.084C481.276 124.18 481.372 124.276 481.372 124.5V126.132C481.372 126.356 481.276 126.484 481.084 126.484H455.164C454.972 126.484 454.844 126.356 454.844 126.132V124.5C454.844 124.276 454.972 124.18 455.164 124.18H466.844V116.788C465.052 117.044 462.812 117.204 460.924 117.204H458.3C458.012 117.204 457.884 117.044 457.884 116.788V104.34C457.884 104.18 458.012 104.052 458.204 104.052H466.044C466.268 104.052 466.396 104.18 466.396 104.34V105.972C466.396 106.196 466.268 106.324 466.044 106.324H460.38V114.932H461.788C463.804 114.932 466.46 114.708 468.22 114.356V104.34C468.22 104.18 468.316 104.052 468.572 104.052H477.852C478.044 104.052 478.14 104.18 478.14 104.34V105.972C478.14 106.196 478.044 106.324 477.852 106.324H470.716V114.836H478.14C478.364 114.836 478.46 114.964 478.46 115.156V116.788C478.46 116.98 478.364 117.108 478.14 117.108H469.372V124.18ZM513.067 101.716H514.923C515.115 101.716 515.211 101.844 515.211 102.036V129.14C515.211 129.364 515.115 129.492 514.923 129.492H513.067C512.843 129.492 512.715 129.364 512.715 129.14V114.516H508.203V128.276C508.203 128.5 508.075 128.628 507.883 128.628H506.059C505.835 128.628 505.739 128.5 505.739 128.276V102.676C505.739 102.452 505.835 102.324 506.059 102.324H507.883C508.075 102.324 508.203 102.452 508.203 102.676V112.212H512.715V102.036C512.715 101.844 512.843 101.716 513.067 101.716ZM491.403 104.756H501.355C501.611 104.756 501.707 104.884 501.707 105.076V108.02C501.707 114.292 498.763 119.252 492.011 124.18C491.851 124.276 491.691 124.244 491.531 124.084L490.347 122.708C490.251 122.516 490.251 122.324 490.443 122.164C496.555 117.812 499.179 113.524 499.179 108.02V107.06H491.403C491.179 107.06 491.083 106.932 491.083 106.708V105.076C491.083 104.884 491.179 104.756 491.403 104.756ZM540.869 107.828H545.381C545.573 107.828 545.701 107.956 545.701 108.148V109.78C545.701 110.004 545.573 110.132 545.381 110.132H540.869V115.476C540.869 115.668 540.805 115.796 540.549 115.796H538.693C538.501 115.796 538.373 115.668 538.373 115.476V102.036C538.373 101.844 538.501 101.716 538.693 101.716H540.549C540.805 101.716 540.869 101.844 540.869 102.036V107.828ZM533.701 103.348V114.292C533.701 114.516 533.605 114.644 533.381 114.644H520.261C520.069 114.644 519.941 114.516 519.941 114.292V103.348C519.941 103.156 520.069 103.028 520.261 103.028H522.117C522.341 103.028 522.437 103.156 522.437 103.348V106.74H531.237V103.348C531.237 103.156 531.333 103.028 531.557 103.028H533.381C533.605 103.028 533.701 103.156 533.701 103.348ZM522.437 108.852V112.532H531.237V108.852H522.437ZM525.957 127.38H541.701C541.925 127.38 542.053 127.508 542.053 127.732V129.172C542.053 129.396 541.925 129.524 541.701 129.524H523.781C523.557 129.524 523.429 129.396 523.429 129.172V122.612C523.429 122.388 523.557 122.26 523.781 122.26H538.405V119.412H523.717C523.493 119.412 523.365 119.284 523.365 119.06V117.652C523.365 117.46 523.493 117.364 523.717 117.364H540.581C540.805 117.364 540.869 117.46 540.869 117.652V123.988C540.869 124.212 540.773 124.308 540.549 124.308H525.957V127.38ZM569.119 111.988H573.631C573.823 111.988 573.951 112.116 573.951 112.34V113.972C573.951 114.164 573.823 114.292 573.631 114.292H569.119V129.172C569.119 129.396 569.055 129.524 568.799 129.524H566.943C566.751 129.524 566.623 129.396 566.623 129.172V102.068C566.623 101.876 566.751 101.748 566.943 101.748H568.799C569.055 101.748 569.119 101.876 569.119 102.068V111.988ZM563.807 121.172C563.999 121.3 563.999 121.492 563.839 121.652L562.719 122.932C562.559 123.092 562.367 123.124 562.207 122.964C558.943 120.148 556.479 116.916 555.519 114.452C554.527 117.172 552.415 120.436 548.671 123.348C548.479 123.476 548.319 123.476 548.159 123.316L547.039 122.004C546.879 121.876 546.879 121.652 547.071 121.524C551.455 118.068 554.207 113.876 554.207 108.66V106.996H548.159C547.903 106.996 547.807 106.868 547.807 106.644V105.044C547.807 104.82 547.903 104.692 548.159 104.692H562.527C562.751 104.692 562.879 104.82 562.879 105.044V106.644C562.879 106.868 562.751 106.996 562.527 106.996H556.703V108.66C556.703 113.748 560.031 117.876 563.807 121.172ZM603.726 101.716H605.582C605.806 101.716 605.934 101.844 605.934 102.036V129.14C605.934 129.364 605.806 129.492 605.582 129.492H603.726C603.502 129.492 603.406 129.364 603.406 129.14V115.124H597.966C597.742 115.124 597.614 115.028 597.614 114.804V113.172C597.614 112.948 597.742 112.82 597.966 112.82H603.406V102.036C603.406 101.844 603.502 101.716 603.726 101.716ZM584.078 104.468H596.846C597.102 104.468 597.198 104.596 597.198 104.788V108.02C597.198 114.9 592.366 120.404 584.27 124.436C584.078 124.532 583.886 124.532 583.79 124.34L582.958 122.74C582.83 122.548 582.894 122.388 583.054 122.292C587.758 120.02 591.15 117.236 593.006 114.004C591.182 114.228 589.134 114.42 587.31 114.42H583.438C583.182 114.42 583.086 114.292 583.086 114.1V112.468C583.086 112.276 583.182 112.148 583.438 112.148H586.926C589.262 112.148 591.886 112.02 594.062 111.7C594.446 110.516 594.638 109.3 594.638 108.02V106.74H584.078C583.854 106.74 583.758 106.612 583.758 106.452V104.788C583.758 104.596 583.854 104.468 584.078 104.468ZM632.488 114.164H614.728C614.504 114.164 614.376 114.036 614.376 113.844V103.188C614.376 102.996 614.504 102.868 614.728 102.868H632.488C632.712 102.868 632.808 102.996 632.808 103.188V113.844C632.808 114.036 632.712 114.164 632.488 114.164ZM630.312 105.14H616.904V111.892H630.312V105.14ZM610.664 117.844H636.584C636.776 117.844 636.872 117.972 636.872 118.164V119.796C636.872 120.02 636.776 120.148 636.584 120.148H629.896V129.14C629.896 129.364 629.768 129.492 629.576 129.492H627.72C627.496 129.492 627.368 129.364 627.368 129.14V120.148H619.816V129.14C619.816 129.364 619.688 129.492 619.496 129.492H617.608C617.384 129.492 617.32 129.364 617.32 129.14V120.148H610.664C610.472 120.148 610.344 120.02 610.344 119.796V118.164C610.344 117.972 610.472 117.844 610.664 117.844ZM662.082 129.492H660.226C660.002 129.492 659.906 129.364 659.906 129.14V102.036C659.906 101.844 660.002 101.716 660.226 101.716H662.082C662.306 101.716 662.434 101.844 662.434 102.036V129.14C662.434 129.364 662.306 129.492 662.082 129.492ZM646.21 122.484H641.154C640.962 122.484 640.834 122.356 640.834 122.132V104.628C640.834 104.436 640.962 104.308 641.154 104.308H643.042C643.266 104.308 643.33 104.436 643.33 104.628V120.18H646.658C649.442 120.18 652.962 119.892 655.906 119.284C656.13 119.22 656.29 119.348 656.322 119.572L656.546 121.172C656.578 121.332 656.482 121.428 656.29 121.492C653.25 122.1 649.954 122.484 646.21 122.484ZM688.476 101.716H690.332C690.556 101.716 690.684 101.844 690.684 102.036V129.14C690.684 129.364 690.556 129.492 690.332 129.492H688.476C688.252 129.492 688.156 129.364 688.156 129.14V102.036C688.156 101.844 688.252 101.716 688.476 101.716ZM684.636 120.148L684.892 121.62C684.924 121.812 684.828 121.908 684.636 121.972C681.564 122.58 678.268 122.932 674.524 122.932H669.116C668.892 122.932 668.764 122.804 668.764 122.612V104.628C668.764 104.436 668.892 104.308 669.116 104.308H682.524C682.748 104.308 682.844 104.436 682.844 104.628V106.164C682.844 106.356 682.748 106.484 682.524 106.484H671.292V112.468H681.916C682.14 112.468 682.236 112.596 682.236 112.788V114.26C682.236 114.452 682.14 114.548 681.916 114.548H671.292V120.756H674.972C677.724 120.756 681.308 120.468 684.22 119.86C684.444 119.796 684.604 119.892 684.636 120.148ZM450.082 171.492H448.226C448.002 171.492 447.906 171.364 447.906 171.14V144.036C447.906 143.844 448.002 143.716 448.226 143.716H450.082C450.338 143.716 450.434 143.844 450.434 144.036V171.14C450.434 171.364 450.338 171.492 450.082 171.492ZM429.666 165.412C429.474 165.508 429.282 165.476 429.186 165.284L428.29 163.78C428.194 163.556 428.258 163.396 428.45 163.3C435.65 159.78 439.298 155.94 439.298 150.02V149.06H429.25C429.026 149.06 428.962 148.932 428.962 148.74V147.076C428.962 146.916 429.026 146.788 429.25 146.788H441.506C441.762 146.788 441.858 146.916 441.858 147.076V150.02C441.858 156.74 437.698 161.38 429.666 165.412ZM469.372 159.268H481.084C481.276 159.268 481.372 159.364 481.372 159.556V161.028C481.372 161.22 481.276 161.348 481.084 161.348H455.164C454.972 161.348 454.844 161.22 454.844 161.028V159.556C454.844 159.364 454.972 159.268 455.164 159.268H466.844V156.484H459.42C459.196 156.484 459.068 156.356 459.068 156.196V149.828C459.068 149.636 459.196 149.476 459.42 149.476H474.62V146.66H459.292C459.068 146.66 458.972 146.532 458.972 146.308V144.9C458.972 144.74 459.068 144.612 459.292 144.612H476.796C477.02 144.612 477.116 144.74 477.116 144.9V151.172C477.116 151.364 476.988 151.524 476.764 151.524H461.564V154.5H477.532C477.756 154.5 477.884 154.628 477.884 154.82V156.196C477.884 156.356 477.756 156.484 477.532 156.484H469.372V159.268ZM458.876 163.588H477.084C477.276 163.588 477.404 163.716 477.404 163.94V171.46C477.404 171.652 477.276 171.748 477.084 171.748H475.228C475.004 171.748 474.908 171.652 474.908 171.46V165.668H458.876C458.684 165.668 458.556 165.54 458.556 165.348V163.94C458.556 163.716 458.684 163.588 458.876 163.588ZM512.619 154.052H517.131C517.323 154.052 517.451 154.18 517.451 154.404V156.036C517.451 156.26 517.323 156.356 517.131 156.356H512.619V171.14C512.619 171.364 512.555 171.492 512.299 171.492H510.443C510.251 171.492 510.123 171.364 510.123 171.14V144.036C510.123 143.844 510.251 143.716 510.443 143.716H512.299C512.555 143.716 512.619 143.844 512.619 144.036V154.052ZM498.603 146.18C503.179 146.18 506.411 149.444 506.411 155.62C506.411 161.796 503.179 165.092 498.603 165.092C494.027 165.092 490.763 161.796 490.763 155.62C490.763 149.444 494.027 146.18 498.603 146.18ZM498.603 162.788C501.771 162.788 503.915 160.356 503.915 155.62C503.915 150.916 501.771 148.452 498.603 148.452C495.435 148.452 493.291 150.916 493.291 155.62C493.291 160.356 495.435 162.788 498.603 162.788ZM540.869 154.052H545.381C545.573 154.052 545.701 154.18 545.701 154.404V156.036C545.701 156.26 545.573 156.356 545.381 156.356H540.869V171.14C540.869 171.364 540.805 171.492 540.549 171.492H538.693C538.501 171.492 538.373 171.364 538.373 171.14V144.036C538.373 143.844 538.501 143.716 538.693 143.716H540.549C540.805 143.716 540.869 143.844 540.869 144.036V154.052ZM520.293 146.468H533.381C533.637 146.468 533.733 146.596 533.733 146.788V150.02C533.733 156.9 528.645 162.404 520.485 166.436C520.293 166.532 520.133 166.532 520.037 166.34L519.173 164.74C519.045 164.548 519.109 164.388 519.301 164.292C524.037 162.02 527.557 159.236 529.477 156.004C527.589 156.228 525.477 156.42 523.589 156.42H519.653C519.397 156.42 519.333 156.292 519.333 156.1V154.468C519.333 154.276 519.397 154.148 519.653 154.148H523.205C525.605 154.148 528.389 153.988 530.565 153.668C530.981 152.516 531.173 151.3 531.173 150.02V148.74H520.293C520.101 148.74 519.973 148.612 519.973 148.452V146.788C519.973 146.596 520.101 146.468 520.293 146.468ZM570.207 171.492H568.351C568.127 171.492 568.031 171.364 568.031 171.14V144.036C568.031 143.844 568.127 143.716 568.351 143.716H570.207C570.431 143.716 570.559 143.844 570.559 144.036V171.14C570.559 171.364 570.431 171.492 570.207 171.492ZM555.551 165.092C550.879 165.092 547.647 161.796 547.647 155.62C547.647 149.444 550.879 146.18 555.551 146.18C560.191 146.18 563.455 149.444 563.455 155.62C563.455 161.796 560.191 165.092 555.551 165.092ZM555.551 162.788C558.783 162.788 560.927 160.356 560.927 155.62C560.927 150.916 558.783 148.452 555.551 148.452C552.287 148.452 550.143 150.916 550.143 155.62C550.143 160.356 552.287 162.788 555.551 162.788ZM598.425 159.524H596.601C596.377 159.524 596.249 159.396 596.249 159.204V144.036C596.249 143.844 596.377 143.716 596.601 143.716H598.425C598.681 143.716 598.777 143.844 598.777 144.036V159.204C598.777 159.396 598.681 159.524 598.425 159.524ZM590.649 145.54V157.508C590.649 157.7 590.553 157.828 590.361 157.828H577.241C577.017 157.828 576.889 157.7 576.889 157.508V145.54C576.889 145.316 577.017 145.188 577.241 145.188H579.065C579.289 145.188 579.385 145.316 579.385 145.54V149.412H588.185V145.54C588.185 145.316 588.281 145.188 588.505 145.188H590.361C590.553 145.188 590.649 145.316 590.649 145.54ZM579.385 151.556V155.62H588.185V151.556H579.385ZM589.817 160.452C595.449 160.452 599.065 162.532 599.065 166.116C599.065 169.668 595.449 171.748 589.817 171.748C584.217 171.748 580.569 169.668 580.569 166.116C580.569 162.532 584.217 160.452 589.817 160.452ZM589.817 169.572C594.073 169.572 596.601 168.324 596.601 166.116C596.601 163.876 594.073 162.628 589.817 162.628C585.625 162.628 583.097 163.876 583.097 166.116C583.097 168.324 585.625 169.572 589.817 169.572ZM624.872 166.276H636.584C636.776 166.276 636.872 166.404 636.872 166.628V168.26C636.872 168.484 636.776 168.58 636.584 168.58H610.664C610.472 168.58 610.344 168.484 610.344 168.26V166.628C610.344 166.404 610.472 166.276 610.664 166.276H622.344V159.396H614.632C614.408 159.396 614.312 159.3 614.312 159.108V146.404C614.312 146.244 614.408 146.116 614.664 146.116H632.424C632.648 146.116 632.744 146.244 632.744 146.404V148.036C632.744 148.26 632.648 148.388 632.424 148.388H616.808V157.124H632.744C632.936 157.124 633.064 157.252 633.064 157.476V159.108C633.064 159.3 632.936 159.396 632.744 159.396H624.872V166.276ZM653.122 159.268H664.834C665.026 159.268 665.122 159.364 665.122 159.556V161.028C665.122 161.22 665.026 161.348 664.834 161.348H638.914C638.722 161.348 638.594 161.22 638.594 161.028V159.556C638.594 159.364 638.722 159.268 638.914 159.268H650.594V156.484H643.17C642.946 156.484 642.818 156.356 642.818 156.196V149.828C642.818 149.636 642.946 149.476 643.17 149.476H658.37V146.66H643.042C642.818 146.66 642.722 146.532 642.722 146.308V144.9C642.722 144.74 642.818 144.612 643.042 144.612H660.546C660.77 144.612 660.866 144.74 660.866 144.9V151.172C660.866 151.364 660.738 151.524 660.514 151.524H645.314V154.5H661.282C661.506 154.5 661.634 154.628 661.634 154.82V156.196C661.634 156.356 661.506 156.484 661.282 156.484H653.122V159.268ZM642.626 163.588H660.834C661.026 163.588 661.154 163.716 661.154 163.94V171.46C661.154 171.652 661.026 171.748 660.834 171.748H658.978C658.754 171.748 658.658 171.652 658.658 171.46V165.668H642.626C642.434 165.668 642.306 165.54 642.306 165.348V163.94C642.306 163.716 642.434 163.588 642.626 163.588Z" fill="white"/>
<path d="M485.677 300.144H534.117C535.377 300.144 535.937 300.844 535.937 301.964V314.284C535.937 315.264 535.377 315.964 534.117 315.964H419.317C418.197 315.964 417.637 315.264 417.637 314.284V301.964C417.637 300.844 418.197 300.144 419.317 300.144H467.757V272.984C460.477 273.824 452.217 274.384 446.477 274.384H432.057C430.797 274.384 430.237 273.824 430.237 272.704V216.144C430.237 215.024 430.797 214.324 432.057 214.324H467.757C469.017 214.324 469.437 215.024 469.437 216.144V228.324C469.437 229.444 469.017 230.144 467.757 230.144H448.017V258.704H452.497C459.077 258.704 470.277 257.444 476.857 256.044V216.144C476.857 215.024 477.417 214.324 478.817 214.324H520.677C521.937 214.324 522.497 215.024 522.497 216.144V228.324C522.497 229.444 521.937 230.144 520.677 230.144H494.637V258.704H522.077C523.197 258.704 523.757 259.404 523.757 260.524V272.704C523.757 273.824 523.197 274.384 522.077 274.384H485.677V300.144ZM609.271 270.604H657.711C658.971 270.604 659.531 271.304 659.531 272.424V283.344C659.531 284.324 658.971 285.024 657.711 285.024H542.911C541.791 285.024 541.231 284.324 541.231 283.344V272.424C541.231 271.304 541.791 270.604 542.911 270.604H591.351V262.484H560.831C559.571 262.484 559.011 261.784 559.011 260.664V230.424C559.011 229.444 559.571 228.604 560.831 228.604H623.971V222.444H560.551C559.291 222.444 558.871 221.744 558.871 220.484V210.124C558.871 209.144 559.291 208.444 560.551 208.444H639.791C641.051 208.444 641.611 209.144 641.611 210.124V240.364C641.611 241.344 640.911 242.184 639.651 242.184H576.651V248.764H642.731C643.851 248.764 644.551 249.464 644.551 250.584V260.664C644.551 261.784 643.851 262.484 642.731 262.484H609.271V270.604ZM558.591 291.464H640.911C642.171 291.464 642.731 292.164 642.731 293.284V327.444C642.731 328.424 642.171 329.124 640.911 329.124H626.771C625.511 329.124 624.951 328.424 624.951 327.444V305.604H558.591C557.331 305.604 556.771 304.904 556.771 303.924V293.284C556.771 292.164 557.331 291.464 558.591 291.464Z" fill="white"/>
</svg>
